<svg xmlns="http://www.w3.org/2000/svg" xmlns:xlink="http://www.w3.org/1999/xlink" width="1920" zoomAndPan="magnify" viewBox="0 0 1440 367.91998" height="480" preserveAspectRatio="xMidYMid meet" version="1.0"><path fill="#000000" d="M 246.179688 312.609375 L 195.632812 130.5625 L 145.089844 312.609375 L 70.160156 312.609375 L 12.078125 51.625 L 82.132812 51.625 L 110.0625 199.078125 L 118.710938 199.300781 L 159.5 51.625 L 231.546875 51.625 L 272.558594 199.300781 L 281.203125 198.859375 L 308.914062 51.625 L 316.675781 51.625 L 316.675781 312.609375 Z M 246.179688 312.609375 " fill-opacity="1" fill-rule="nonzero"/><path fill="#000000" d="M 500.007812 312.609375 L 500.007812 203.515625 L 400.027344 203.515625 L 400.027344 312.609375 L 325.542969 312.609375 L 325.542969 51.625 L 400.027344 51.625 L 400.027344 146.085938 L 500.007812 146.085938 L 500.007812 51.625 L 574.9375 51.625 L 574.9375 69.363281 C 572.277344 71.582031 569.839844 73.796875 567.402344 76.238281 C 542.128906 101.515625 529.269531 137.214844 529.269531 182.226562 C 529.269531 227.238281 535.699219 241.652344 548.558594 263.160156 C 555.875 275.800781 564.742188 286.445312 574.9375 295.089844 L 574.9375 312.386719 L 500.007812 312.386719 Z M 500.007812 312.609375 " fill-opacity="1" fill-rule="nonzero"/><path fill="#000000" d="M 676.46875 317.265625 C 646.765625 317.265625 622.15625 312.609375 602.871094 303.074219 C 595.554688 299.527344 588.460938 295.089844 582.253906 289.769531 C 572.277344 281.566406 563.632812 271.144531 556.316406 258.726562 C 544.347656 238.546875 538.359375 212.828125 538.359375 182.226562 C 538.359375 151.628906 550.332031 105.949219 573.828125 82.445312 C 576.488281 79.785156 579.148438 77.34375 582.253906 74.90625 C 605.085938 56.28125 635.679688 46.96875 673.144531 46.96875 C 710.609375 46.96875 750.511719 58.71875 773.789062 81.78125 C 776.007812 83.996094 778.003906 86.214844 780.21875 88.652344 C 762.042969 112.601562 752.953125 144.089844 752.953125 182.226562 C 752.953125 220.367188 759.382812 241.652344 772.238281 263.160156 C 774.675781 267.375 777.335938 271.585938 780.21875 275.355469 C 771.574219 285.558594 761.375 294.203125 749.40625 300.855469 C 730.117188 311.722656 705.511719 317.042969 676.691406 317.042969 Z M 672.921875 101.292969 C 654.746094 101.292969 640.113281 107.722656 629.03125 120.804688 C 618.167969 133.445312 612.625 154.289062 612.625 182.671875 C 612.625 211.054688 618.167969 231.675781 628.808594 244.3125 C 639.671875 257.175781 654.746094 263.828125 673.589844 263.828125 C 692.433594 263.828125 707.949219 257.394531 718.589844 244.757812 C 729.230469 232.117188 734.332031 210.609375 734.332031 179.121094 C 734.332031 147.636719 728.789062 133 717.925781 120.585938 C 706.839844 107.945312 691.765625 101.515625 672.921875 101.515625 Z M 672.921875 101.292969 " fill-opacity="1" fill-rule="nonzero"/><path fill="#000000" d="M 899.929688 317.265625 C 870.222656 317.265625 845.617188 312.609375 826.328125 303.074219 C 811.921875 296.199219 799.507812 286 789.308594 272.917969 C 785.984375 268.484375 782.65625 263.828125 779.777344 258.949219 C 767.804688 238.769531 761.820312 213.046875 761.820312 182.449219 C 761.820312 151.847656 771.128906 114.375 789.308594 91.535156 C 791.746094 88.433594 794.628906 85.328125 797.289062 82.667969 C 820.789062 59.164062 854.261719 47.1875 896.605469 47.1875 C 938.945312 47.1875 971.976562 58.277344 995.253906 80.007812 C 986.832031 93.089844 982.617188 107.058594 982.617188 121.691406 C 982.617188 144.089844 991.042969 162.714844 1007.667969 177.128906 C 1014.097656 182.671875 1022.300781 187.992188 1032.277344 192.648438 C 1031.832031 202.40625 1030.722656 211.496094 1029.171875 220.144531 L 972.199219 223.691406 L 972.640625 228.125 C 974.636719 250.523438 981.511719 270.035156 993.480469 286.222656 C 987.273438 291.765625 980.402344 296.867188 972.863281 300.855469 C 953.578125 311.722656 928.96875 317.042969 899.929688 317.042969 Z M 896.382812 101.292969 C 878.203125 101.292969 863.574219 107.722656 852.488281 120.804688 C 841.625 133.445312 836.085938 154.289062 836.085938 182.671875 C 836.085938 211.054688 841.625 231.675781 852.265625 244.3125 C 863.128906 257.175781 878.203125 263.828125 897.046875 263.828125 C 915.890625 263.828125 931.410156 257.394531 942.050781 244.757812 C 952.691406 232.117188 957.789062 210.609375 957.789062 179.121094 C 957.789062 147.636719 952.246094 133 941.386719 120.585938 C 930.300781 107.945312 915.226562 101.515625 896.382812 101.515625 Z M 896.382812 101.292969 " fill-opacity="1" fill-rule="nonzero"/><path fill="#000000" d="M 1102.105469 317.265625 C 1057.769531 317.265625 1026.734375 308.839844 1009.886719 291.988281 C 993.039062 275.136719 1005.007812 286.886719 1002.792969 284.003906 C 991.265625 269.589844 984.171875 252.074219 981.730469 231.894531 L 1052.449219 227.460938 C 1054.445312 239.214844 1057.992188 248.304688 1063.3125 254.957031 C 1072.84375 266.929688 1086.367188 273.140625 1103.660156 273.140625 C 1120.949219 273.140625 1126.9375 270.035156 1134.03125 263.605469 C 1141.34375 257.175781 1145.113281 249.414062 1145.113281 240.765625 C 1145.113281 232.117188 1141.566406 225.023438 1134.472656 218.59375 C 1127.601562 212.382812 1112.96875 207.0625 1089.691406 201.960938 C 1069.519531 197.304688 1052.226562 191.984375 1038.707031 185.773438 C 1028.507812 181.117188 1019.863281 175.796875 1013.65625 170.253906 C 998.800781 157.390625 991.707031 141.425781 991.707031 121.472656 C 991.707031 101.515625 995.476562 96.191406 1003.015625 84.664062 C 1003.457031 83.996094 1003.902344 83.332031 1004.566406 82.667969 L 1005.007812 82 C 1012.546875 71.800781 1023.410156 63.375 1037.375 57.167969 C 1052.894531 50.292969 1074.617188 46.96875 1101.886719 46.96875 C 1129.152344 46.96875 1152.652344 51.402344 1169.277344 60.050781 L 1169.277344 121.027344 L 1138.019531 122.800781 C 1135.582031 111.492188 1130.925781 103.066406 1124.054688 97.523438 C 1116.515625 91.316406 1106.320312 88.210938 1093.460938 88.210938 C 1080.605469 88.210938 1074.398438 90.648438 1068.632812 95.304688 C 1062.648438 100.183594 1059.765625 106.394531 1059.765625 113.710938 C 1059.765625 121.027344 1062.425781 124.355469 1067.300781 128.789062 C 1071.738281 132.78125 1081.269531 136.328125 1097.230469 139.652344 C 1129.152344 146.527344 1153.316406 153.625 1169.054688 160.496094 L 1169.054688 304.183594 C 1167.726562 304.847656 1166.617188 305.292969 1165.289062 305.957031 C 1148.660156 313.273438 1127.601562 316.820312 1102.105469 316.820312 Z M 1102.105469 317.265625 " fill-opacity="1" fill-rule="nonzero"/><path fill="#000000" d="M 1352.167969 312.609375 L 1352.167969 203.515625 L 1252.410156 203.515625 L 1252.410156 312.609375 L 1177.921875 312.609375 L 1177.921875 51.625 L 1252.410156 51.625 L 1252.410156 146.085938 L 1352.167969 146.085938 L 1352.167969 51.625 L 1427.097656 51.625 L 1427.097656 312.609375 Z M 1352.167969 312.609375 " fill-opacity="1" fill-rule="nonzero"/></svg>
